<?xml version="1.0" encoding="UTF-8" standalone="no"?>
<!DOCTYPE svg PUBLIC "-//W3C//DTD SVG 1.1//EN"
 "http://www.w3.org/Graphics/SVG/1.1/DTD/svg11.dtd">
<!-- Generated by graphviz version 2.40.1 (0)
 -->
<!-- Title: snakemake_dag Pages: 1 -->
<svg width="418pt" height="260pt"
 viewBox="0.00 0.00 418.00 260.00" xmlns="http://www.w3.org/2000/svg" xmlns:xlink="http://www.w3.org/1999/xlink">
<g id="graph0" class="graph" transform="scale(1 1) rotate(0) translate(4 256)">
<title>snakemake_dag</title>
<polygon fill="#ffffff" stroke="transparent" points="-4,4 -4,-256 414,-256 414,4 -4,4"/>
<!-- 0 -->
<g id="node1" class="node">
<title>0</title>
<path fill="none" stroke="#88d856" stroke-width="2" d="M218,-36C218,-36 188,-36 188,-36 182,-36 176,-30 176,-24 176,-24 176,-12 176,-12 176,-6 182,0 188,0 188,0 218,0 218,0 224,0 230,-6 230,-12 230,-12 230,-24 230,-24 230,-30 224,-36 218,-36"/>
<text text-anchor="middle" x="203" y="-15.5" font-family="sans" font-size="10.00" fill="#000000">all</text>
</g>
<!-- 1 -->
<g id="node2" class="node">
<title>1</title>
<path fill="none" stroke="#56d88a" stroke-width="2" d="M68,-180C68,-180 12,-180 12,-180 6,-180 0,-174 0,-168 0,-168 0,-156 0,-156 0,-150 6,-144 12,-144 12,-144 68,-144 68,-144 74,-144 80,-150 80,-156 80,-156 80,-168 80,-168 80,-174 74,-180 68,-180"/>
<text text-anchor="middle" x="40" y="-159.5" font-family="sans" font-size="10.00" fill="#000000">demuxlet_v1</text>
</g>
<!-- 1&#45;&gt;0 -->
<g id="edge5" class="edge">
<title>1&#45;&gt;0</title>
<path fill="none" stroke="#c0c0c0" stroke-width="2" d="M60.6441,-143.7623C89.5483,-118.2272 142.1788,-71.7316 174.7121,-42.9906"/>
<polygon fill="#c0c0c0" stroke="#c0c0c0" stroke-width="2" points="177.3465,-45.3335 182.5236,-36.0896 172.7119,-40.0874 177.3465,-45.3335"/>
</g>
<!-- 8 -->
<g id="node9" class="node">
<title>8</title>
<path fill="none" stroke="#59d856" stroke-width="2" d="M270.5,-108C270.5,-108 207.5,-108 207.5,-108 201.5,-108 195.5,-102 195.5,-96 195.5,-96 195.5,-84 195.5,-84 195.5,-78 201.5,-72 207.5,-72 207.5,-72 270.5,-72 270.5,-72 276.5,-72 282.5,-78 282.5,-84 282.5,-84 282.5,-96 282.5,-96 282.5,-102 276.5,-108 270.5,-108"/>
<text text-anchor="middle" x="239" y="-87.5" font-family="sans" font-size="10.00" fill="#000000">sample_report</text>
</g>
<!-- 1&#45;&gt;8 -->
<g id="edge12" class="edge">
<title>1&#45;&gt;8</title>
<path fill="none" stroke="#c0c0c0" stroke-width="2" d="M80.1036,-147.244C83.1133,-146.144 86.1042,-145.0531 89,-144 121.1329,-132.3143 157.1832,-119.332 185.8877,-109.0257"/>
<polygon fill="#c0c0c0" stroke="#c0c0c0" stroke-width="2" points="187.0945,-112.3113 195.3243,-105.6389 184.7298,-105.7228 187.0945,-112.3113"/>
</g>
<!-- 2 -->
<g id="node3" class="node">
<title>2</title>
<path fill="none" stroke="#d85656" stroke-width="2" d="M166,-180C166,-180 110,-180 110,-180 104,-180 98,-174 98,-168 98,-168 98,-156 98,-156 98,-150 104,-144 110,-144 110,-144 166,-144 166,-144 172,-144 178,-150 178,-156 178,-156 178,-168 178,-168 178,-174 172,-180 166,-180"/>
<text text-anchor="middle" x="138" y="-159.5" font-family="sans" font-size="10.00" fill="#000000">demuxlet_v2</text>
</g>
<!-- 2&#45;&gt;0 -->
<g id="edge1" class="edge">
<title>2&#45;&gt;0</title>
<path fill="none" stroke="#c0c0c0" stroke-width="2" d="M146.2323,-143.7623C157.4655,-118.8764 177.6851,-74.0822 190.7148,-45.2165"/>
<polygon fill="#c0c0c0" stroke="#c0c0c0" stroke-width="2" points="193.9104,-46.6441 194.8345,-36.0896 187.5302,-43.7641 193.9104,-46.6441"/>
</g>
<!-- 2&#45;&gt;8 -->
<g id="edge9" class="edge">
<title>2&#45;&gt;8</title>
<path fill="none" stroke="#c0c0c0" stroke-width="2" d="M163.4866,-143.8314C176.1659,-134.7927 191.6596,-123.7476 205.3055,-114.0198"/>
<polygon fill="#c0c0c0" stroke="#c0c0c0" stroke-width="2" points="207.4105,-116.8176 213.5216,-108.1628 203.3471,-111.1176 207.4105,-116.8176"/>
</g>
<!-- 3 -->
<g id="node4" class="node">
<title>3</title>
<path fill="none" stroke="#56c1d8" stroke-width="2" d="M238,-180C238,-180 208,-180 208,-180 202,-180 196,-174 196,-168 196,-168 196,-156 196,-156 196,-150 202,-144 208,-144 208,-144 238,-144 238,-144 244,-144 250,-150 250,-156 250,-156 250,-168 250,-168 250,-174 244,-180 238,-180"/>
<text text-anchor="middle" x="223" y="-159.5" font-family="sans" font-size="10.00" fill="#000000">vireo</text>
</g>
<!-- 3&#45;&gt;0 -->
<g id="edge6" class="edge">
<title>3&#45;&gt;0</title>
<path fill="none" stroke="#c0c0c0" stroke-width="2" d="M206.5719,-143.989C198.6975,-134.1289 190.102,-121.2441 186,-108 179.6782,-87.5892 184.677,-63.8088 190.8537,-45.8197"/>
<polygon fill="#c0c0c0" stroke="#c0c0c0" stroke-width="2" points="194.2178,-46.8161 194.4455,-36.2237 187.662,-44.3622 194.2178,-46.8161"/>
</g>
<!-- 3&#45;&gt;8 -->
<g id="edge13" class="edge">
<title>3&#45;&gt;8</title>
<path fill="none" stroke="#c0c0c0" stroke-width="2" d="M227.0375,-143.8314C228.7487,-136.131 230.7835,-126.9743 232.6852,-118.4166"/>
<polygon fill="#c0c0c0" stroke="#c0c0c0" stroke-width="2" points="236.1554,-118.9344 234.9082,-108.4133 229.3221,-117.4159 236.1554,-118.9344"/>
</g>
<!-- 4 -->
<g id="node5" class="node">
<title>4</title>
<path fill="none" stroke="#56d8c1" stroke-width="2" d="M226,-252C226,-252 196,-252 196,-252 190,-252 184,-246 184,-240 184,-240 184,-228 184,-228 184,-222 190,-216 196,-216 196,-216 226,-216 226,-216 232,-216 238,-222 238,-228 238,-228 238,-240 238,-240 238,-246 232,-252 226,-252"/>
<text text-anchor="middle" x="211" y="-231.5" font-family="sans" font-size="10.00" fill="#000000">cellsnp</text>
</g>
<!-- 4&#45;&gt;3 -->
<g id="edge7" class="edge">
<title>4&#45;&gt;3</title>
<path fill="none" stroke="#c0c0c0" stroke-width="2" d="M214.0281,-215.8314C215.3115,-208.131 216.8376,-198.9743 218.2639,-190.4166"/>
<polygon fill="#c0c0c0" stroke="#c0c0c0" stroke-width="2" points="221.7394,-190.8526 219.9311,-180.4133 214.8347,-189.7018 221.7394,-190.8526"/>
</g>
<!-- 5 -->
<g id="node6" class="node">
<title>5</title>
<path fill="none" stroke="#d88d56" stroke-width="2" d="M323.5,-180C323.5,-180 280.5,-180 280.5,-180 274.5,-180 268.5,-174 268.5,-168 268.5,-168 268.5,-156 268.5,-156 268.5,-150 274.5,-144 280.5,-144 280.5,-144 323.5,-144 323.5,-144 329.5,-144 335.5,-150 335.5,-156 335.5,-156 335.5,-168 335.5,-168 335.5,-174 329.5,-180 323.5,-180"/>
<text text-anchor="middle" x="302" y="-159.5" font-family="sans" font-size="10.00" fill="#000000">souporcell</text>
</g>
<!-- 5&#45;&gt;0 -->
<g id="edge2" class="edge">
<title>5&#45;&gt;0</title>
<path fill="none" stroke="#c0c0c0" stroke-width="2" d="M304.1652,-143.8993C305.5431,-124.5474 304.953,-93.7201 291,-72 279.0374,-53.3783 258.1421,-40.1575 239.7142,-31.4598"/>
<polygon fill="#c0c0c0" stroke="#c0c0c0" stroke-width="2" points="240.9236,-28.1676 230.3628,-27.3191 238.0894,-34.5682 240.9236,-28.1676"/>
</g>
<!-- 5&#45;&gt;8 -->
<g id="edge10" class="edge">
<title>5&#45;&gt;8</title>
<path fill="none" stroke="#c0c0c0" stroke-width="2" d="M286.1024,-143.8314C278.7722,-135.454 269.934,-125.3531 261.9031,-116.1749"/>
<polygon fill="#c0c0c0" stroke="#c0c0c0" stroke-width="2" points="264.3307,-113.6343 255.1116,-108.4133 259.0627,-118.2438 264.3307,-113.6343"/>
</g>
<!-- 6 -->
<g id="node7" class="node">
<title>6</title>
<path fill="none" stroke="#568ad8" stroke-width="2" d="M362,-252C362,-252 268,-252 268,-252 262,-252 256,-246 256,-240 256,-240 256,-228 256,-228 256,-222 262,-216 268,-216 268,-216 362,-216 362,-216 368,-216 374,-222 374,-228 374,-228 374,-240 374,-240 374,-246 368,-252 362,-252"/>
<text text-anchor="middle" x="315" y="-231.5" font-family="sans" font-size="10.00" fill="#000000">souporcell_container</text>
</g>
<!-- 6&#45;&gt;5 -->
<g id="edge8" class="edge">
<title>6&#45;&gt;5</title>
<path fill="none" stroke="#c0c0c0" stroke-width="2" d="M311.7196,-215.8314C310.3292,-208.131 308.6759,-198.9743 307.1308,-190.4166"/>
<polygon fill="#c0c0c0" stroke="#c0c0c0" stroke-width="2" points="310.5458,-189.6322 305.3246,-180.4133 303.6572,-190.8761 310.5458,-189.6322"/>
</g>
<!-- 7 -->
<g id="node8" class="node">
<title>7</title>
<path fill="none" stroke="#d8bc56" stroke-width="2" d="M398,-180C398,-180 366,-180 366,-180 360,-180 354,-174 354,-168 354,-168 354,-156 354,-156 354,-150 360,-144 366,-144 366,-144 398,-144 398,-144 404,-144 410,-150 410,-156 410,-156 410,-168 410,-168 410,-174 404,-180 398,-180"/>
<text text-anchor="middle" x="382" y="-159.5" font-family="sans" font-size="10.00" fill="#000000">scansnp</text>
</g>
<!-- 7&#45;&gt;0 -->
<g id="edge3" class="edge">
<title>7&#45;&gt;0</title>
<path fill="none" stroke="#c0c0c0" stroke-width="2" d="M371.1175,-143.827C358.5999,-124.1265 336.4665,-92.7313 311,-72 289.6159,-54.592 261.6945,-40.8168 239.599,-31.5369"/>
<polygon fill="#c0c0c0" stroke="#c0c0c0" stroke-width="2" points="240.7943,-28.2446 230.2127,-27.7153 238.1546,-34.7279 240.7943,-28.2446"/>
</g>
<!-- 7&#45;&gt;8 -->
<g id="edge11" class="edge">
<title>7&#45;&gt;8</title>
<path fill="none" stroke="#c0c0c0" stroke-width="2" d="M353.7478,-147.7751C333.8599,-137.7616 306.8214,-124.1478 283.9863,-112.6504"/>
<polygon fill="#c0c0c0" stroke="#c0c0c0" stroke-width="2" points="285.3226,-109.4047 274.8168,-108.0336 282.1746,-115.6569 285.3226,-109.4047"/>
</g>
<!-- 8&#45;&gt;0 -->
<g id="edge4" class="edge">
<title>8&#45;&gt;0</title>
<path fill="none" stroke="#c0c0c0" stroke-width="2" d="M229.9157,-71.8314C225.9385,-63.8771 221.1845,-54.369 216.7861,-45.5723"/>
<polygon fill="#c0c0c0" stroke="#c0c0c0" stroke-width="2" points="219.8093,-43.7923 212.2066,-36.4133 213.5483,-46.9228 219.8093,-43.7923"/>
</g>
</g>
</svg>
